<svg width="48" height="48" viewBox="0 0 48 48" fill="none" xmlns="http://www.w3.org/2000/svg">
<path d="M28.6447 26.7095C32.0654 26.7095 34.8383 23.9365 34.8383 20.5159C34.8383 17.0953 32.0654 14.3223 28.6447 14.3223C25.2241 14.3223 22.4512 17.0953 22.4512 20.5159C22.4512 23.9365 25.2241 26.7095 28.6447 26.7095Z" fill="#FFDA00"/>
<path d="M23.9991 34.4516C22.2912 34.4516 20.9023 35.8404 20.9023 37.5484C20.9023 39.2563 22.2912 40.6452 23.9991 40.6452C25.7071 40.6452 27.0959 39.2563 27.0959 37.5484C27.0959 35.8404 25.7071 34.4516 23.9991 34.4516ZM23.9991 39.0968C23.1452 39.0968 22.4507 38.4023 22.4507 37.5484C22.4507 36.6945 23.1452 36 23.9991 36C24.853 36 25.5475 36.6945 25.5475 37.5484C25.5475 38.4023 24.8532 39.0968 23.9991 39.0968Z" fill="#414140"/>
<path d="M46.8899 27.195C46.1954 26.7134 45.3067 26.6043 44.5139 26.8992L44.4249 26.9326L36.0504 6.37606L14.9288 13.9198L10.5809 3.48375H2.32251C1.04201 3.48375 0 4.52575 0 5.80625C0 7.08675 1.04201 8.12892 2.32251 8.12892H7.23095L18.178 33.73C17.4558 34.8278 17.0323 36.1386 17.0323 37.5484C17.0323 41.3907 20.1585 44.5162 24 44.5162C27.8415 44.5162 30.9677 41.3909 30.9677 37.5484C30.9677 37.4717 30.9584 37.3966 30.9561 37.3208L46.3015 31.7411C47.3172 31.371 48 30.397 48 29.3156C48.0002 28.4693 47.5851 27.6773 46.8899 27.195ZM25.992 11.6127L28.3859 16.9988L25.9534 17.9719L23.5194 12.496L25.992 11.6127ZM22.0569 13.0179L25.1436 19.9633L30.453 17.8396L27.4539 11.0909L35.1757 8.33323L42.975 27.4768L29.0077 32.7151C27.7396 31.4012 25.9651 30.5807 24.0002 30.5807C23.3027 30.5807 22.6306 30.6867 21.9949 30.878L15.5249 15.3505L22.0569 13.0179ZM2.32251 6.58053C1.89589 6.58053 1.54839 6.23369 1.54839 5.80625C1.54839 5.37881 1.89606 5.03197 2.32251 5.03197H9.54801L20.5717 31.4894C20.1119 31.7504 19.6876 32.0638 19.3005 32.4184L8.25297 6.58053H2.32251ZM24 42.9677C21.0116 42.9677 18.5807 40.536 18.5807 37.5482C18.5807 34.5604 21.0117 32.1288 24 32.1288C26.9883 32.1288 29.4193 34.5604 29.4193 37.5482C29.4193 40.536 26.9884 42.9677 24 42.9677ZM45.7728 30.2855L30.7264 35.7569C30.5599 35.1329 30.3098 34.5438 29.987 34.001L45.0575 28.3494C45.3795 28.2278 45.7249 28.2712 46.0081 28.4671C46.2899 28.663 46.4518 28.9727 46.4518 29.3156C46.4518 29.7483 46.1784 30.1377 45.7728 30.2855Z" fill="#414140"/>
</svg>
