<svg width="17" height="17" viewBox="0 0 17 17" fill="none" xmlns="http://www.w3.org/2000/svg">
<g clip-path="url(#clip0_213_1370)">
<path d="M8.49935 15.5834C12.4114 15.5834 15.5827 12.412 15.5827 8.50002C15.5827 4.588 12.4114 1.41669 8.49935 1.41669C4.58733 1.41669 1.41602 4.588 1.41602 8.50002C1.41602 12.412 4.58733 15.5834 8.49935 15.5834Z" stroke="#FFDA00" stroke-width="1.5" stroke-linecap="round" stroke-linejoin="round"/>
<path d="M6.43945 6.37498C6.60599 5.90157 6.93469 5.50239 7.36734 5.24811C7.79999 4.99384 8.30867 4.90089 8.80329 4.98573C9.2979 5.07057 9.74653 5.32772 10.0697 5.71164C10.3929 6.09556 10.5698 6.58147 10.569 7.08331C10.569 8.49998 8.44404 9.20831 8.44404 9.20831" stroke="#FFDA00" stroke-width="1.5" stroke-linecap="round" stroke-linejoin="round"/>
<path d="M8.5 12.0417H8.50708" stroke="#FFDA00" stroke-width="1.5" stroke-linecap="round" stroke-linejoin="round"/>
</g>
<defs>
<clipPath id="clip0_213_1370">
<rect width="17" height="17" fill="white"/>
</clipPath>
</defs>
</svg>
